<svg xmlns="http://www.w3.org/2000/svg" viewBox="0 0 1280 760" font-family="Arial, sans-serif">
  <rect width="1280" height="760" fill="#ffffff"/>
  <rect x="0" y="0" width="1280" height="70" fill="#eeeeee" stroke="#999"/>
  <rect x="30" y="25" width="140" height="20" fill="#ccc"/>
  <rect x="1100" y="25" width="150" height="20" fill="#ccc"/>

  <text x="30" y="110" font-size="24" fill="#333">Nos menus</text>

  <!-- Filtres -->
  <rect x="30" y="130" width="1220" height="70" fill="#f5f5f5" stroke="#ddd"/>
  <rect x="50" y="150" width="180" height="30" fill="#e0e0e0"/>
  <rect x="250" y="150" width="180" height="30" fill="#e0e0e0"/>
  <rect x="450" y="150" width="180" height="30" fill="#e0e0e0"/>
  <rect x="650" y="150" width="180" height="30" fill="#e0e0e0"/>
  <rect x="850" y="150" width="180" height="30" fill="#e0e0e0"/>

  <!-- Grille de menus -->
  <rect x="30" y="230" width="380" height="300" fill="#fafafa" stroke="#ccc"/>
  <rect x="410" y="230" width="380" height="300" fill="#fafafa" stroke="#ccc"/>
  <rect x="790" y="230" width="380" height="300" fill="#fafafa" stroke="#ccc"/>

  <rect x="30" y="230" width="380" height="150" fill="#e5e5e5"/>
  <rect x="410" y="230" width="380" height="150" fill="#e5e5e5"/>
  <rect x="790" y="230" width="380" height="150" fill="#e5e5e5"/>

  <rect x="50" y="400" width="200" height="16" fill="#ddd"/>
  <rect x="430" y="400" width="200" height="16" fill="#ddd"/>
  <rect x="810" y="400" width="200" height="16" fill="#ddd"/>

  <rect x="50" y="480" width="140" height="30" fill="#ccc"/>
  <rect x="430" y="480" width="140" height="30" fill="#ccc"/>
  <rect x="810" y="480" width="140" height="30" fill="#ccc"/>

  <rect x="0" y="700" width="1280" height="60" fill="#eeeeee" stroke="#999"/>

  <text x="20" y="20" font-size="13" fill="#333" font-weight="bold">WIREFRAME — Liste des menus avec filtres (desktop)</text>
</svg>
